<mxfile host="Electron" agent="Mozilla/5.0 (Windows NT 10.0; Win64; x64) AppleWebKit/537.36 (KHTML, like Gecko) draw.io/28.1.2 Chrome/138.0.7204.243 Electron/37.4.0 Safari/537.36" version="28.1.2">
  <diagram name="Page-1" id="PFCNlorbmtfbkgeV1KIv">
    <mxGraphModel dx="3412" dy="2352" grid="1" gridSize="8" guides="1" tooltips="1" connect="1" arrows="1" fold="1" page="1" pageScale="1" pageWidth="850" pageHeight="1100" math="0" shadow="0">
      <root>
        <mxCell id="0" />
        <mxCell id="1" parent="0" />
        <mxCell id="WgE5_fXbV-15DGfGmiFM-48" value="" style="rounded=1;whiteSpace=wrap;html=1;fillColor=none;dashed=1;" parent="1" vertex="1">
          <mxGeometry x="176" y="-56" width="312" height="544" as="geometry" />
        </mxCell>
        <mxCell id="WgE5_fXbV-15DGfGmiFM-41" value="" style="rounded=1;whiteSpace=wrap;html=1;fillColor=none;dashed=1;" parent="1" vertex="1">
          <mxGeometry x="-840" y="-64" width="568" height="544" as="geometry" />
        </mxCell>
        <mxCell id="WgE5_fXbV-15DGfGmiFM-3" value="crm_cust_info" style="swimlane;fontStyle=0;childLayout=stackLayout;horizontal=1;startSize=30;horizontalStack=0;resizeParent=1;resizeParentMax=0;resizeLast=0;collapsible=1;marginBottom=0;whiteSpace=wrap;html=1;rounded=1;fillColor=#0050ef;fontColor=#ffffff;strokeColor=#001DBC;fontSize=16;" parent="1" vertex="1">
          <mxGeometry x="-495" y="244" width="192" height="60" as="geometry" />
        </mxCell>
        <mxCell id="WgE5_fXbV-15DGfGmiFM-4" value="cst_id" style="text;strokeColor=none;fillColor=none;align=left;verticalAlign=middle;spacingLeft=4;spacingRight=4;overflow=hidden;points=[[0,0.5],[1,0.5]];portConstraint=eastwest;rotatable=0;whiteSpace=wrap;html=1;fontSize=16;" parent="WgE5_fXbV-15DGfGmiFM-3" vertex="1">
          <mxGeometry y="30" width="192" height="30" as="geometry" />
        </mxCell>
        <mxCell id="WgE5_fXbV-15DGfGmiFM-8" value="&lt;font style=&quot;font-size: 16px;&quot;&gt;&lt;b&gt;Customer Informatiom&lt;/b&gt;&lt;/font&gt;" style="text;html=1;align=center;verticalAlign=middle;whiteSpace=wrap;rounded=0;" parent="1" vertex="1">
          <mxGeometry x="-498" y="208" width="194" height="30" as="geometry" />
        </mxCell>
        <mxCell id="WgE5_fXbV-15DGfGmiFM-9" value="crm_prd_info" style="swimlane;fontStyle=0;childLayout=stackLayout;horizontal=1;startSize=30;horizontalStack=0;resizeParent=1;resizeParentMax=0;resizeLast=0;collapsible=1;marginBottom=0;whiteSpace=wrap;html=1;rounded=1;fillColor=#0050ef;fontColor=#ffffff;strokeColor=#001DBC;fontSize=16;" parent="1" vertex="1">
          <mxGeometry x="-506" y="52" width="194" height="60" as="geometry" />
        </mxCell>
        <mxCell id="WgE5_fXbV-15DGfGmiFM-10" value="prd_id" style="text;strokeColor=none;fillColor=none;align=left;verticalAlign=middle;spacingLeft=4;spacingRight=4;overflow=hidden;points=[[0,0.5],[1,0.5]];portConstraint=eastwest;rotatable=0;whiteSpace=wrap;html=1;fontSize=16;" parent="WgE5_fXbV-15DGfGmiFM-9" vertex="1">
          <mxGeometry y="30" width="194" height="30" as="geometry" />
        </mxCell>
        <mxCell id="WgE5_fXbV-15DGfGmiFM-11" value="&lt;font style=&quot;font-size: 16px;&quot;&gt;&lt;b&gt;Current &amp;amp; History Product Information&lt;/b&gt;&lt;/font&gt;" style="text;html=1;align=center;verticalAlign=middle;whiteSpace=wrap;rounded=0;" parent="1" vertex="1">
          <mxGeometry x="-576" y="16" width="296" height="30" as="geometry" />
        </mxCell>
        <mxCell id="WgE5_fXbV-15DGfGmiFM-12" value="crm_sales_details" style="swimlane;fontStyle=0;childLayout=stackLayout;horizontal=1;startSize=30;horizontalStack=0;resizeParent=1;resizeParentMax=0;resizeLast=0;collapsible=1;marginBottom=0;whiteSpace=wrap;html=1;rounded=1;fillColor=#0050ef;fontColor=#ffffff;strokeColor=#001DBC;fontSize=16;" parent="1" vertex="1">
          <mxGeometry x="-816" y="136" width="213" height="90" as="geometry">
            <mxRectangle x="-64" y="208" width="168" height="40" as="alternateBounds" />
          </mxGeometry>
        </mxCell>
        <mxCell id="WgE5_fXbV-15DGfGmiFM-13" value="prd_key" style="text;strokeColor=none;fillColor=none;align=left;verticalAlign=middle;spacingLeft=4;spacingRight=4;overflow=hidden;points=[[0,0.5],[1,0.5]];portConstraint=eastwest;rotatable=0;whiteSpace=wrap;html=1;fontSize=16;" parent="WgE5_fXbV-15DGfGmiFM-12" vertex="1">
          <mxGeometry y="30" width="213" height="30" as="geometry" />
        </mxCell>
        <mxCell id="WgE5_fXbV-15DGfGmiFM-16" value="cst_id" style="text;strokeColor=none;fillColor=none;align=left;verticalAlign=middle;spacingLeft=4;spacingRight=4;overflow=hidden;points=[[0,0.5],[1,0.5]];portConstraint=eastwest;rotatable=0;whiteSpace=wrap;html=1;fontSize=16;" parent="WgE5_fXbV-15DGfGmiFM-12" vertex="1">
          <mxGeometry y="60" width="213" height="30" as="geometry" />
        </mxCell>
        <mxCell id="WgE5_fXbV-15DGfGmiFM-14" value="&lt;b&gt;&lt;font style=&quot;font-size: 16px;&quot;&gt;Transactional Records about Sales &amp;amp; Orders&lt;/font&gt;&lt;/b&gt;" style="text;html=1;align=center;verticalAlign=middle;whiteSpace=wrap;rounded=0;" parent="1" vertex="1">
          <mxGeometry x="-824" y="97" width="240" height="30" as="geometry" />
        </mxCell>
        <mxCell id="WgE5_fXbV-15DGfGmiFM-18" style="edgeStyle=orthogonalEdgeStyle;rounded=0;orthogonalLoop=1;jettySize=auto;html=1;entryX=0;entryY=0.5;entryDx=0;entryDy=0;" parent="1" source="WgE5_fXbV-15DGfGmiFM-13" target="WgE5_fXbV-15DGfGmiFM-10" edge="1">
          <mxGeometry relative="1" as="geometry" />
        </mxCell>
        <mxCell id="WgE5_fXbV-15DGfGmiFM-19" style="edgeStyle=orthogonalEdgeStyle;rounded=0;orthogonalLoop=1;jettySize=auto;html=1;entryX=0;entryY=0.5;entryDx=0;entryDy=0;" parent="1" source="WgE5_fXbV-15DGfGmiFM-16" target="WgE5_fXbV-15DGfGmiFM-4" edge="1">
          <mxGeometry relative="1" as="geometry" />
        </mxCell>
        <mxCell id="WgE5_fXbV-15DGfGmiFM-23" value="erp_cust_az12" style="swimlane;fontStyle=0;childLayout=stackLayout;horizontal=1;startSize=30;horizontalStack=0;resizeParent=1;resizeParentMax=0;resizeLast=0;collapsible=1;marginBottom=0;whiteSpace=wrap;html=1;rounded=1;fillColor=#ffcd28;strokeColor=#d79b00;fontSize=16;gradientColor=#ffa500;opacity=70;" parent="1" vertex="1">
          <mxGeometry x="236.75" y="182" width="205.5" height="72" as="geometry" />
        </mxCell>
        <mxCell id="WgE5_fXbV-15DGfGmiFM-24" value="cid" style="text;strokeColor=none;fillColor=none;align=left;verticalAlign=middle;spacingLeft=4;spacingRight=4;overflow=hidden;points=[[0,0.5],[1,0.5]];portConstraint=eastwest;rotatable=0;whiteSpace=wrap;html=1;fontSize=16;" parent="WgE5_fXbV-15DGfGmiFM-23" vertex="1">
          <mxGeometry y="30" width="205.5" height="42" as="geometry" />
        </mxCell>
        <mxCell id="WgE5_fXbV-15DGfGmiFM-25" value="&lt;font style=&quot;font-size: 16px;&quot;&gt;&lt;b style=&quot;&quot;&gt;Extra Customer Information(Birthday)&lt;/b&gt;&lt;/font&gt;" style="text;html=1;align=center;verticalAlign=middle;whiteSpace=wrap;rounded=0;" parent="1" vertex="1">
          <mxGeometry x="192" y="152" width="296" height="30" as="geometry" />
        </mxCell>
        <mxCell id="WgE5_fXbV-15DGfGmiFM-29" value="erp_loc_a101" style="swimlane;fontStyle=0;childLayout=stackLayout;horizontal=1;startSize=30;horizontalStack=0;resizeParent=1;resizeParentMax=0;resizeLast=0;collapsible=1;marginBottom=0;whiteSpace=wrap;html=1;rounded=1;fillColor=#ffcd28;strokeColor=#d79b00;fontSize=16;gradientColor=#ffa500;opacity=70;" parent="1" vertex="1">
          <mxGeometry x="240" y="342" width="205.5" height="56" as="geometry" />
        </mxCell>
        <mxCell id="WgE5_fXbV-15DGfGmiFM-31" value="cid" style="text;strokeColor=none;fillColor=none;align=left;verticalAlign=middle;spacingLeft=4;spacingRight=4;overflow=hidden;points=[[0,0.5],[1,0.5]];portConstraint=eastwest;rotatable=0;whiteSpace=wrap;html=1;fontSize=16;" parent="WgE5_fXbV-15DGfGmiFM-29" vertex="1">
          <mxGeometry y="30" width="205.5" height="26" as="geometry" />
        </mxCell>
        <mxCell id="WgE5_fXbV-15DGfGmiFM-32" value="&lt;font style=&quot;font-size: 16px;&quot;&gt;&lt;b&gt;Location of customers (Country)&lt;/b&gt;&lt;/font&gt;" style="text;html=1;align=center;verticalAlign=middle;whiteSpace=wrap;rounded=0;" parent="1" vertex="1">
          <mxGeometry x="203.32" y="304" width="257.37" height="30" as="geometry" />
        </mxCell>
        <mxCell id="WgE5_fXbV-15DGfGmiFM-34" value="erp_loc_a101" style="swimlane;fontStyle=0;childLayout=stackLayout;horizontal=1;startSize=30;horizontalStack=0;resizeParent=1;resizeParentMax=0;resizeLast=0;collapsible=1;marginBottom=0;whiteSpace=wrap;html=1;rounded=1;fillColor=#ffcd28;strokeColor=#d79b00;fontSize=16;gradientColor=#ffa500;opacity=70;" parent="1" vertex="1">
          <mxGeometry x="238.37" y="56" width="205.5" height="88" as="geometry" />
        </mxCell>
        <mxCell id="WgE5_fXbV-15DGfGmiFM-35" value="id" style="text;strokeColor=none;fillColor=none;align=left;verticalAlign=middle;spacingLeft=4;spacingRight=4;overflow=hidden;points=[[0,0.5],[1,0.5]];portConstraint=eastwest;rotatable=0;whiteSpace=wrap;html=1;fontSize=16;" parent="WgE5_fXbV-15DGfGmiFM-34" vertex="1">
          <mxGeometry y="30" width="205.5" height="26" as="geometry" />
        </mxCell>
        <mxCell id="KSZYziPNsGKys07Sa5aQ-2" value="&lt;span style=&quot;font-size: 20px;&quot;&gt;&lt;b&gt;&lt;font style=&quot;color: rgb(11, 11, 11);&quot;&gt;PRODUCT&lt;/font&gt;&lt;/b&gt;&lt;/span&gt;" style="text;html=1;strokeColor=#B20000;fillColor=#E5ADB1;align=center;verticalAlign=middle;whiteSpace=wrap;overflow=hidden;fontSize=18;fontColor=#ffffff;" parent="WgE5_fXbV-15DGfGmiFM-34" vertex="1">
          <mxGeometry y="56" width="205.5" height="32" as="geometry" />
        </mxCell>
        <mxCell id="WgE5_fXbV-15DGfGmiFM-36" value="&lt;font style=&quot;font-size: 16px;&quot;&gt;&lt;b style=&quot;&quot;&gt;Product Categories&lt;/b&gt;&lt;/font&gt;" style="text;html=1;align=center;verticalAlign=middle;whiteSpace=wrap;rounded=0;" parent="1" vertex="1">
          <mxGeometry x="236" y="16" width="205.5" height="30" as="geometry" />
        </mxCell>
        <mxCell id="WgE5_fXbV-15DGfGmiFM-49" value="&lt;font style=&quot;font-size: 19px;&quot;&gt;CRM&lt;/font&gt;" style="rounded=1;whiteSpace=wrap;html=1;fillColor=#0050ef;strokeColor=#001DBC;fontColor=#ffffff;" parent="1" vertex="1">
          <mxGeometry x="-618" y="-96" width="120" height="60" as="geometry" />
        </mxCell>
        <mxCell id="WgE5_fXbV-15DGfGmiFM-50" value="&lt;font style=&quot;font-size: 19px;&quot;&gt;ERP&lt;/font&gt;" style="rounded=1;whiteSpace=wrap;html=1;fillColor=#f0a30a;fontColor=#000000;strokeColor=#BD7000;" parent="1" vertex="1">
          <mxGeometry x="280" y="-88" width="120" height="60" as="geometry" />
        </mxCell>
        <mxCell id="WgE5_fXbV-15DGfGmiFM-51" style="edgeStyle=orthogonalEdgeStyle;rounded=0;orthogonalLoop=1;jettySize=auto;html=1;" parent="1" source="WgE5_fXbV-15DGfGmiFM-24" edge="1">
          <mxGeometry relative="1" as="geometry">
            <mxPoint x="-304" y="291" as="targetPoint" />
            <Array as="points">
              <mxPoint x="-183" y="221" />
              <mxPoint x="-183" y="291" />
            </Array>
          </mxGeometry>
        </mxCell>
        <mxCell id="WgE5_fXbV-15DGfGmiFM-54" value="DATA INTEGRATION" style="text;html=1;align=center;verticalAlign=middle;whiteSpace=wrap;rounded=0;fillColor=#e51400;fontColor=#ffffff;strokeColor=#B20000;fontSize=30;" parent="1" vertex="1">
          <mxGeometry x="-256" y="-200" width="421" height="30" as="geometry" />
        </mxCell>
        <mxCell id="KSZYziPNsGKys07Sa5aQ-1" value="&lt;font style=&quot;font-size: 20px; color: rgb(5, 5, 5);&quot;&gt;&lt;b&gt;PRODUCT&lt;/b&gt;&lt;/font&gt;" style="text;html=1;strokeColor=#B20000;fillColor=#E5ADB1;align=center;verticalAlign=middle;whiteSpace=wrap;overflow=hidden;fontSize=18;fontColor=#ffffff;" parent="1" vertex="1">
          <mxGeometry x="-506" y="112" width="194" height="32" as="geometry" />
        </mxCell>
        <mxCell id="KSZYziPNsGKys07Sa5aQ-3" value="&lt;font style=&quot;font-size: 20px; color: rgb(5, 5, 5);&quot;&gt;&lt;b&gt;SALES&lt;/b&gt;&lt;/font&gt;" style="text;html=1;strokeColor=#9673a6;fillColor=#e1d5e7;align=center;verticalAlign=middle;whiteSpace=wrap;overflow=hidden;fontSize=18;" parent="1" vertex="1">
          <mxGeometry x="-816" y="218" width="212" height="32" as="geometry" />
        </mxCell>
        <mxCell id="KSZYziPNsGKys07Sa5aQ-4" value="&lt;font style=&quot;font-size: 20px; color: rgb(5, 5, 5);&quot;&gt;&lt;b&gt;CUSTOMER&lt;/b&gt;&lt;/font&gt;" style="text;html=1;strokeColor=#82b366;fillColor=#d5e8d4;align=center;verticalAlign=middle;whiteSpace=wrap;overflow=hidden;fontSize=18;gradientColor=#97d077;" parent="1" vertex="1">
          <mxGeometry x="240" y="392" width="202.25" height="32" as="geometry" />
        </mxCell>
        <mxCell id="KSZYziPNsGKys07Sa5aQ-9" value="" style="endArrow=classic;html=1;rounded=0;exitX=0;exitY=0.5;exitDx=0;exitDy=0;" parent="1" edge="1" source="WgE5_fXbV-15DGfGmiFM-35">
          <mxGeometry width="50" height="50" relative="1" as="geometry">
            <mxPoint x="248.5239999999999" y="126.998" as="sourcePoint" />
            <mxPoint x="-304" y="130.71" as="targetPoint" />
            <Array as="points">
              <mxPoint x="-152" y="130.71" />
              <mxPoint x="-224" y="130.71" />
            </Array>
          </mxGeometry>
        </mxCell>
        <mxCell id="KSZYziPNsGKys07Sa5aQ-10" value="" style="endArrow=none;html=1;rounded=0;entryX=0;entryY=0.5;entryDx=0;entryDy=0;" parent="1" edge="1" target="WgE5_fXbV-15DGfGmiFM-31">
          <mxGeometry width="50" height="50" relative="1" as="geometry">
            <mxPoint x="-184" y="384" as="sourcePoint" />
            <mxPoint x="244.91750000000002" y="387.8559999999999" as="targetPoint" />
          </mxGeometry>
        </mxCell>
        <mxCell id="KSZYziPNsGKys07Sa5aQ-11" value="" style="endArrow=none;html=1;rounded=0;" parent="1" edge="1">
          <mxGeometry width="50" height="50" relative="1" as="geometry">
            <mxPoint x="-184" y="384" as="sourcePoint" />
            <mxPoint x="-184" y="288" as="targetPoint" />
          </mxGeometry>
        </mxCell>
        <mxCell id="KSZYziPNsGKys07Sa5aQ-12" value="&lt;font style=&quot;font-size: 20px; color: rgb(5, 5, 5);&quot;&gt;&lt;b&gt;CUSTOMER&lt;/b&gt;&lt;/font&gt;" style="text;html=1;strokeColor=#82b366;fillColor=#d5e8d4;align=center;verticalAlign=middle;whiteSpace=wrap;overflow=hidden;fontSize=18;gradientColor=#97d077;" parent="1" vertex="1">
          <mxGeometry x="-495" y="296" width="194" height="32" as="geometry" />
        </mxCell>
        <mxCell id="KSZYziPNsGKys07Sa5aQ-6" value="&lt;font style=&quot;font-size: 20px; color: rgb(5, 5, 5);&quot;&gt;&lt;b&gt;CUSTOMER&lt;/b&gt;&lt;/font&gt;" style="text;html=1;strokeColor=#82b366;fillColor=#d5e8d4;align=center;verticalAlign=middle;whiteSpace=wrap;overflow=hidden;fontSize=18;gradientColor=#97d077;" parent="1" vertex="1">
          <mxGeometry x="240" y="244" width="205.5" height="32" as="geometry" />
        </mxCell>
      </root>
    </mxGraphModel>
  </diagram>
</mxfile>
